<svg 
    xmlns="http://www.w3.org/2000/svg"
    viewBox="0 0 50 50"
    width="50px" height="50px"
>
    <path d="M 16 0 C 7.178 0 0 7.178 0 16 C 0 24.822 7.178 32 16 32 C 16.041 32 16.076187 31.996094 16.117188 31.996094 C 17.041187 23.657094 23.657094 17.041187 31.996094 16.117188 C 31.996094 16.076187 32 16.041 32 16 C 32 7.178 24.822 0 16 0 z M 39.292969 0.29296875 L 33.585938 6 L 39.292969 11.707031 L 40.707031 10.292969 L 37.414062 7 L 42 7 C 44.754545 7 47 9.2454545 47 12 L 47 18 L 49 18 L 49 12 C 49 8.1545455 45.845455 5 42 5 L 37.414062 5 L 40.707031 1.7070312 L 39.292969 0.29296875 z M 16 4 C 16.552 4 17 4.448 17 5 L 17 6.734375 C 18.108 6.871375 19.040219 7.341 19.699219 8 C 20.399219 8.7 20.899219 9.7996094 21.199219 11.099609 L 19.300781 11.099609 C 19.015781 9.6746094 18.273 8.8876875 17 8.5546875 L 17 14.0625 L 18.099609 14.400391 C 18.399609 14.500391 18.699609 14.600781 19.099609 14.800781 C 19.499609 15.000781 19.900781 15.199609 20.300781 15.599609 C 20.700781 15.899609 20.999219 16.300781 21.199219 16.800781 C 21.499219 17.300781 21.599609 17.899609 21.599609 18.599609 C 21.599609 19.299609 21.499219 20 21.199219 20.5 C 20.999219 21.1 20.599219 21.6 20.199219 22 C 19.799219 22.4 19.299219 22.7 18.699219 23 C 18.179219 23.173 17.651 23.339812 17 23.382812 L 17 25 C 17 25.552 16.552 26 16 26 C 15.448 26 15 25.552 15 25 L 15 23.322266 C 13.739 23.133266 12.706 22.595781 12 21.800781 C 11.1 20.900781 10.6 19.699609 10.5 18.099609 L 12.400391 18.099609 C 12.300391 19.199609 12.699219 20 13.199219 20.5 C 13.705219 21.006 14.291 21.293188 15 21.492188 L 15 15.595703 C 14.369 15.429703 13.814391 15.265609 13.400391 15.099609 C 12.800391 14.899609 12.4 14.598828 12 14.298828 C 11.6 13.998828 11.299219 13.599609 11.199219 13.099609 C 10.999219 12.599609 10.900391 12.098437 10.900391 11.398438 C 10.900391 10.698438 11.000781 10.099609 11.300781 9.5996094 C 11.500781 8.9996094 11.900781 8.5996094 12.300781 8.0996094 C 12.700781 7.6996094 13.200781 7.3996094 13.800781 7.0996094 C 14.200781 6.9666094 14.6 6.8376719 15 6.7636719 L 15 5 C 15 4.448 15.448 4 16 4 z M 15 8.6347656 C 14.506 8.7057656 13.991609 8.9087813 13.599609 9.3007812 C 13.099609 9.7007813 12.900391 10.399219 12.900391 11.199219 C 12.900391 11.599219 12.999609 11.899219 13.099609 12.199219 C 13.199609 12.499219 13.399609 12.700391 13.599609 12.900391 C 13.799609 13.100391 14.100391 13.200391 14.400391 13.400391 C 14.580391 13.460391 14.791 13.551625 15 13.640625 L 15 8.6347656 z M 17 16.208984 L 17 21.623047 C 17.293 21.548047 17.577781 21.474391 17.800781 21.400391 C 18.100781 21.300391 18.499219 21.100391 18.699219 20.900391 C 18.999219 20.700391 19.200781 20.4 19.300781 20 C 19.400781 19.7 19.5 19.200781 19.5 18.800781 C 19.5 18.400781 19.400781 17.999219 19.300781 17.699219 C 19.200781 17.399219 18.999219 17.2 18.699219 17 C 18.399219 16.8 18.100781 16.6 17.800781 16.5 C 17.509781 16.427 17.262 16.310984 17 16.208984 z M 34 18 C 25.178 18 18 25.178 18 34 C 18 42.822 25.178 50 34 50 C 42.822 50 50 42.822 50 34 C 50 25.178 42.822 18 34 18 z M 33 23.857422 L 33 35.675781 L 27.484375 34.099609 L 33 23.857422 z M 35 23.857422 L 40.515625 34.099609 L 35 35.675781 L 35 23.857422 z M 1 32 L 1 38 C 1 41.845455 4.1545455 45 8 45 L 11.585938 45 L 8.2929688 48.292969 L 9.7070312 49.707031 L 15.414062 44 L 9.7070312 38.292969 L 8.2929688 39.707031 L 11.585938 43 L 8 43 C 5.2454545 43 3 40.754545 3 38 L 3 32 L 1 32 z M 27.808594 36.271484 L 33 37.753906 L 33 38.042969 L 33 44.427734 L 27.808594 36.271484 z M 40.191406 36.271484 L 35 44.427734 L 35 38.042969 L 35 37.753906 L 40.191406 36.271484 z"/>
</svg>